<?xml version="1.0" encoding="iso-8859-1"?>
<!-- Generator: Adobe Illustrator 19.0.0, SVG Export Plug-In . SVG Version: 6.00 Build 0)  -->
<svg version="1.1" id="Capa_1" xmlns="http://www.w3.org/2000/svg" xmlns:xlink="http://www.w3.org/1999/xlink" x="0px" y="0px"
	 viewBox="0 0 512 512" style="enable-background:new 0 0 512 512;" xml:space="preserve">
<g>
	<g>
		<path d="M461.6,298.912l-70.24-15.168v-20.608c3.68-5.344,7.104-12.192,10.656-19.328c2.656-5.312,6.656-13.28,8.16-15.04
			c10.624-10.272,23.36-24.48,27.584-43.52c3.712-18.144-1.12-27.488-3.84-31.04c0-14.816,0-36.864-4.544-53.888
			c-0.608-20.896-4.736-33.216-14.08-42.944C408,48.928,397.44,47.104,388.96,45.632c-2.624-0.448-6.56-1.12-7.968-1.824
			C366.72,36.128,352.576,32.384,335.296,32c-26.88,1.184-53.984,13.152-72.48,32c-6.176,6.304-6.112,16.448,0.224,22.624
			c6.272,6.176,16.384,6.112,22.624-0.224c12.768-13.024,32.32-21.6,49.984-22.4c11.104,0.256,20.416,2.72,29.984,7.872
			c5.76,3.232,12.224,4.352,17.92,5.344c2.688,0.48,7.232,1.248,8.096,1.696c2.304,2.432,5.504,5.76,5.792,24.096
			c0.032,1.44,0.256,2.912,0.672,4.288c3.808,12.8,3.808,34.176,3.808,46.944c0,5.984,2.208,10.272,3.68,13.152
			c1.344,2.656,2.272,4.384,0.864,11.232c-2.304,10.368-10.656,19.552-18.688,27.328c-5.152,5.12-9.408,13.664-14.368,23.552
			c-2.72,5.472-7.296,14.592-9.344,16.768c-3.008,3.008-4.704,7.072-4.704,11.328v39.04c0,7.52,5.248,14.048,12.64,15.648
			l82.848,17.92C469.664,333.408,480,346.336,480,361.6V384h-83.2c-8.832,0-16,7.168-16,16c0,8.832,7.168,16,16,16H496
			c8.832,0,16-7.168,16-16v-38.4C512,331.136,491.296,305.376,461.6,298.912z"/>
	</g>
</g>
<g>
	<g>
		<path d="M301.568,363.04l-70.272-15.264V327.04c3.68-5.312,7.104-12.064,10.656-19.136c2.656-5.248,6.656-13.184,8.32-15.072
			c11.424-11.168,23.584-25.056,27.36-43.392c3.776-18.272-0.992-27.648-3.744-31.328c0-12.864,0-36.32-4.48-53.536
			c-0.512-20.768-4.576-33.12-14.336-43.744c-7.328-7.936-17.664-9.664-25.952-11.072c-2.688-0.448-6.72-1.12-7.936-1.728
			C207.2,100.256,192.992,96.448,175.392,96c-35.52,1.344-79.168,23.968-93.792,64.544c-4.16,11.52-4.16,28.736-3.776,48.448
			l-0.032,7.808c-2.56,5.024-7.328,14.4-3.552,32.64c3.776,18.368,15.936,32.256,27.264,43.328c1.76,1.984,5.824,9.952,8.544,15.232
			c3.552,7.008,7.008,13.728,10.656,19.04v20.768l-70.272,15.264C21.216,369.408,0,395.712,0,425.6V464c0,8.832,7.168,16,16,16h320
			c8.832,0,16-7.168,16-16v-38.4C352,395.712,330.784,369.408,301.568,363.04z M320,448H32v-22.4
			c0-14.944,10.624-28.096,25.216-31.264l82.88-17.984c7.36-1.6,12.608-8.096,12.608-15.648V321.44c0-4.096-1.92-8.384-4.736-11.36
			c-2.048-2.176-6.656-11.2-9.408-16.608c-5.088-9.888-9.44-18.432-14.624-23.488c-8.352-8.16-16.352-17.088-18.368-27.008
			c-1.504-7.264-0.608-9.024,0.736-11.648c1.44-2.848,3.648-7.2,3.648-13.216l-0.128-9.76c-0.224-11.232-0.608-30.08,1.856-36.96
			c9.728-26.976,40.704-42.496,63.904-43.392c11.52,0.288,20.512,2.688,30.08,8c5.824,3.232,12.352,4.32,18.112,5.312
			c2.944,0.512,7.136,1.216,7.776,1.216c2.528,2.752,5.664,6.176,5.888,24.544c0,1.44,0.224,2.88,0.64,4.288
			c3.808,12.96,3.808,35.776,3.808,46.72c0,6.016,2.208,10.336,3.648,13.216c1.344,2.656,2.24,4.384,0.736,11.68
			c-2.016,9.92-10.016,18.816-18.368,27.008c-5.216,5.056-9.536,13.6-14.528,23.488c-2.72,5.408-7.296,14.432-9.312,16.576
			c-3.072,3.008-4.768,7.104-4.768,11.392v39.264c0,7.52,5.248,14.048,12.608,15.648l82.88,17.984
			C309.376,397.504,320,410.656,320,425.6V448z"/>
	</g>
</g>
<g>
</g>
<g>
</g>
<g>
</g>
<g>
</g>
<g>
</g>
<g>
</g>
<g>
</g>
<g>
</g>
<g>
</g>
<g>
</g>
<g>
</g>
<g>
</g>
<g>
</g>
<g>
</g>
<g>
</g>
</svg>
