<?xml version="1.0" encoding="iso-8859-1"?>
<!-- Generator: Adobe Illustrator 19.0.0, SVG Export Plug-In . SVG Version: 6.00 Build 0)  -->
<svg version="1.1" id="Layer_1" xmlns="http://www.w3.org/2000/svg" xmlns:xlink="http://www.w3.org/1999/xlink" x="0px" y="0px"
	 viewBox="0 0 512 512" style="enable-background:new 0 0 512 512;" xml:space="preserve">
<g>
	<g>
		<path d="M347,60H75c-8.284,0-15,6.716-15,15v60c0,8.284,6.716,15,15,15h272c8.284,0,15-6.716,15-15V75
			C362,66.716,355.284,60,347,60z M332,120H90V90h242V120z"/>
	</g>
</g>
<g>
	<g>
		<path d="M347,180h-91c-8.284,0-15,6.716-15,15s6.716,15,15,15h91c8.284,0,15-6.716,15-15S355.284,180,347,180z"/>
	</g>
</g>
<g>
	<g>
		<path d="M347,241h-91c-8.284,0-15,6.716-15,15s6.716,15,15,15h91c8.284,0,15-6.716,15-15S355.284,241,347,241z"/>
	</g>
</g>
<g>
	<g>
		<path d="M347,302h-91c-8.284,0-15,6.716-15,15s6.716,15,15,15h91c8.284,0,15-6.716,15-15S355.284,302,347,302z"/>
	</g>
</g>
<g>
	<g>
		<path d="M256,422H75c-8.284,0-15,6.716-15,15s6.716,15,15,15h181c8.284,0,15-6.716,15-15S264.284,422,256,422z"/>
	</g>
</g>
<g>
	<g>
		<path d="M347,362H75c-8.284,0-15,6.716-15,15s6.716,15,15,15h272c8.284,0,15-6.716,15-15S355.284,362,347,362z"/>
	</g>
</g>
<g>
	<g>
		<path d="M497,60h-75V15c0-8.284-6.716-15-15-15H15C6.716,0,0,6.716,0,15v422c0,41.355,33.645,75,75,75h377
			c33.084,0,60-26.916,60-60V75C512,66.716,505.284,60,497,60z M75,482c-24.813,0-45-20.187-45-45V30h362c0,11.435,0,411.154,0,422
			c0,10.925,2.949,21.167,8.072,30H75z M482,452c0,16.542-13.458,30-30,30s-30-13.458-30-30V90h60V452z"/>
	</g>
</g>
<g>
	<g>
		<path d="M196,180H75c-8.284,0-15,6.716-15,15v122c0,8.284,6.716,15,15,15h121c8.284,0,15-6.716,15-15V195
			C211,186.716,204.284,180,196,180z M181,302H90v-92h91V302z"/>
	</g>
</g>
<g>
</g>
<g>
</g>
<g>
</g>
<g>
</g>
<g>
</g>
<g>
</g>
<g>
</g>
<g>
</g>
<g>
</g>
<g>
</g>
<g>
</g>
<g>
</g>
<g>
</g>
<g>
</g>
<g>
</g>
</svg>
